<svg width="62" height="62" viewBox="0 0 62 62" fill="none" xmlns="http://www.w3.org/2000/svg">
<rect opacity="0.07" width="62" height="62" rx="31" fill="white"/>
<path d="M42.1925 24.1217C41.3757 24.4929 40.4952 24.7369 39.5829 24.8536C40.5164 24.2914 41.2378 23.4003 41.5772 22.3289C40.6967 22.8593 39.7208 23.2306 38.6918 23.4427C37.8537 22.5304 36.6762 22 35.3396 22C32.8466 22 30.8098 24.0368 30.8098 26.5509C30.8098 26.9116 30.8523 27.2617 30.9265 27.5906C27.15 27.3996 23.7872 25.5856 21.5488 22.8381C21.1563 23.5064 20.9335 24.2914 20.9335 25.1188C20.9335 26.6995 21.7291 28.0998 22.9597 28.8954C22.2065 28.8954 21.5064 28.6832 20.8911 28.365V28.3968C20.8911 30.6033 22.4611 32.4491 24.5403 32.8629C23.8728 33.0456 23.172 33.071 22.4929 32.9371C22.7811 33.8415 23.3454 34.6328 24.1065 35.1998C24.8676 35.7668 25.7873 36.0811 26.7363 36.0984C25.1276 37.3718 23.1337 38.0602 21.082 38.0503C20.7214 38.0503 20.3607 38.0291 20 37.9867C22.0156 39.2809 24.413 40.0341 26.9802 40.0341C35.3396 40.0341 39.9329 33.0962 39.9329 27.0814C39.9329 26.8798 39.9329 26.6889 39.9223 26.4873C40.8134 25.8508 41.5772 25.0446 42.1925 24.1217Z" fill="#DFE42F"/>
</svg>
