<svg width="42" height="47" viewBox="0 0 42 47" fill="none" xmlns="http://www.w3.org/2000/svg">
<g id="Group 34">
<path id="Vector" d="M35.8095 38.1285C35.8095 38.0805 35.8023 38.0324 35.7998 37.9844V37.9154C35.7768 37.9551 35.7562 37.9963 35.7381 38.0386C35.617 37.2355 35.6884 36.4213 35.5807 35.6121C35.0875 31.9046 33.4892 28.7883 30.7857 26.2633C28.7531 24.3575 26.2244 23.0867 23.5013 22.6026C22.8223 22.4716 22.1338 22.3983 21.4429 22.3833C21.4429 22.6198 21.6766 22.5656 21.8061 22.6038C22.3248 22.7394 22.8071 22.9912 23.2179 23.3406C23.6287 23.6901 23.9576 24.1285 24.1806 24.6238C24.2508 24.7704 24.2835 24.9478 24.4227 25.0463C24.4385 25.0585 24.4556 25.0688 24.4736 25.0771C24.4663 25.0451 24.4579 25.0131 24.4494 24.981C24.608 24.9096 24.7485 25.0007 24.8841 25.0512C29.828 26.9198 32.7655 30.4893 33.5646 35.8005C33.8601 37.7614 33.7354 39.7556 33.6445 41.7313C33.5695 43.3621 32.0825 44.7515 30.4007 44.9338C28.7539 45.1124 27.066 44.0309 26.5889 42.3792C26.1179 40.7484 25.7341 39.0905 25.3418 37.4375C24.9168 35.6466 23.8779 34.4456 22.1452 33.8938C21.8824 33.8101 21.8788 33.661 21.8788 33.4516C21.8788 32.2692 21.8788 31.0867 21.8788 29.9055H21.8909L21.8812 29.8969C21.8691 29.8848 21.8561 29.8737 21.8424 29.8636C21.2019 29.8636 20.5602 29.8476 19.9184 29.8735L19.8954 29.8956L19.8857 29.9055H19.899C19.899 31.0732 19.8869 32.2458 19.899 33.406C19.899 33.6893 19.8385 33.8187 19.5358 33.9185C17.9798 34.4432 16.9409 35.5074 16.5087 37.1308C16.0982 38.7 15.7277 40.2803 15.3402 41.8557C14.8559 43.8363 13.4113 45.0101 11.5491 44.9412C9.71463 44.8747 8.13084 43.3276 8.09572 41.4603C8.06061 39.5598 7.94922 37.6506 8.19139 35.7562C8.59096 32.6214 9.97374 29.988 12.2368 27.8374C13.5645 26.5749 15.1484 25.6242 16.8768 25.0525C17.016 25.0057 17.1516 24.9108 17.3115 24.9798C17.3018 25.0143 17.2921 25.0475 17.2836 25.082C17.2994 25.0752 17.3148 25.0674 17.3296 25.0586C17.3842 25.0207 17.4263 24.9671 17.4507 24.9047C17.9702 23.6729 18.8432 22.8575 20.1497 22.5545C20.2356 22.5348 20.3725 22.5139 20.3349 22.3809C17.3587 22.4966 14.644 23.4278 12.2538 25.2225C8.77541 27.8296 6.75168 31.3224 6.18258 35.7008C6.08087 36.4792 6.16321 37.2626 6.03608 38.041C6.02247 37.9838 5.99955 37.9292 5.96826 37.8797V37.9758C5.96826 38.0275 5.96826 38.078 5.96826 38.1297C6.03728 38.9156 5.93074 39.7076 6.02639 40.4922L6.04455 40.6227C6.11841 40.8457 6.09056 41.0772 6.09541 41.3063C6.14747 43.4557 7.1222 45.0557 8.89124 46.1938C9.49666 46.5818 10.1905 46.7136 10.8371 46.9797H12.5577C12.8967 46.875 13.2382 46.7777 13.5736 46.6631C14.4071 46.3797 15.1602 45.894 15.7676 45.2479C15.8887 45.1247 15.9735 45.0089 16.1648 45.1851C16.6688 45.6494 17.2407 46.0313 17.86 46.317C18.172 46.4599 18.4932 46.5809 18.8214 46.6791C19.0866 46.758 19.3542 46.7937 19.6181 46.8861C20.0758 47.0462 20.6243 46.9982 21.1038 46.9735C21.6365 46.9512 22.1648 46.8657 22.6779 46.7186C23.4778 46.4809 24.2338 46.1109 24.9156 45.6235C25.119 45.4782 25.316 45.323 25.5065 45.158C25.6275 45.0508 25.7184 44.919 25.8988 45.1247C26.422 45.7178 27.0657 46.1881 27.7853 46.503C27.9907 46.5929 28.2009 46.671 28.4149 46.737C28.5251 46.7715 28.6365 46.8035 28.7491 46.8306C28.9118 46.8843 29.0776 46.9279 29.2455 46.9612C29.729 47.0088 30.216 47.0042 30.6985 46.9477C31.1414 46.8941 31.5759 46.784 31.9917 46.62C32.3753 46.4731 32.7433 46.2869 33.09 46.0645C33.6401 45.7147 34.1224 45.2651 34.5127 44.7379C34.92 44.1772 35.2356 43.5534 35.4475 42.8903C35.4757 42.8041 35.5024 42.7179 35.5274 42.6317C35.7187 41.9752 35.617 41.294 35.7296 40.6326L35.7478 40.5094C35.8495 39.7137 35.7393 38.918 35.8095 38.1285ZM24.5245 43.3276C23.5613 44.332 22.2546 44.9201 20.8762 44.9695C19.4886 44.8981 18.2765 44.4768 17.2824 43.4914C17.1347 43.3461 17.0402 43.2143 17.0983 42.9741C17.5415 41.2398 17.9665 39.5006 18.4049 37.7651C18.6676 36.7231 19.3033 36.0407 20.3422 35.8067C21.3109 35.5874 22.1258 35.8917 22.793 36.6233C23.0915 36.9728 23.297 37.3944 23.3899 37.8477C23.8052 39.5253 24.2133 41.2066 24.6383 42.883C24.6668 42.9594 24.6718 43.0429 24.6526 43.1224C24.6333 43.2018 24.5907 43.2734 24.5305 43.3276H24.5245Z" fill="white"/>
<path id="Vector_2" d="M41.286 24.6921C40.3685 19.946 38.4267 15.638 35.5674 11.7322C35.3884 11.4847 35.4332 11.3684 35.6234 11.1741C36.9691 9.80068 37.9516 8.11634 38.4826 6.27202C38.9799 4.61243 38.9227 2.9182 38.919 1.22272C38.919 0.388595 38.5336 0.00371151 37.7032 0.00247394C34.045 0.00247394 30.3859 0.00247394 26.726 0.00247394C25.9167 0.00247394 25.5288 0.3886 25.5251 1.18931C25.5214 1.99002 25.5251 2.78701 25.5251 3.62609C22.4172 2.57167 19.3379 2.56177 16.2312 3.62609C16.2312 2.75978 16.2387 1.92443 16.2312 1.09525C16.2237 0.412113 15.8148 0.00371272 15.1248 0.00371272C11.4044 -0.00123757 7.68361 -0.00123757 3.9624 0.00371272C3.24882 0.00371272 2.84355 0.414584 2.84355 1.1299C2.84355 1.84522 2.82987 2.58034 2.84355 3.30556C2.91068 6.33679 3.99886 8.94724 6.1081 11.1369C6.35674 11.4018 6.33063 11.5441 6.13918 11.8065C3.93463 14.8081 2.26554 18.1652 1.20505 21.7306C0.119762 25.3653 -0.382477 29.0582 0.33483 32.8291C0.986249 36.2683 2.71302 39.043 5.64316 41.0317C5.64316 40.9971 5.64315 40.9624 5.65061 40.9278C5.71463 40.099 5.71463 39.2666 5.65061 38.4378C5.63664 38.3803 5.61312 38.3255 5.581 38.2757V38.3722C3.85176 36.824 2.84603 34.8624 2.39103 32.6187C1.7508 29.4988 2.09888 26.4197 2.89699 23.3765C3.86919 19.675 5.51226 16.1814 7.74534 13.0675C7.96911 12.752 8.12825 12.7124 8.42039 12.9438C9.16629 13.5539 9.89727 13.4673 10.7066 12.9586C13.2215 11.3745 14.9234 9.19393 15.7762 6.35989C15.806 6.22944 15.8687 6.10876 15.9586 6.00932C16.0485 5.90988 16.1625 5.83501 16.2896 5.79184C19.3652 4.55427 22.4334 4.55427 25.5102 5.79184C25.6374 5.83593 25.7511 5.91158 25.8407 6.01162C25.9304 6.11167 25.9929 6.23281 26.0224 6.36361C26.8926 9.22983 28.6069 11.4377 31.1741 13.0044C31.92 13.4648 32.6 13.5601 33.2962 12.997C33.679 12.6876 33.868 12.8015 34.134 13.1802C36.8889 17.102 38.7338 21.4014 39.4722 26.1338C39.926 29.0285 39.9036 31.9121 38.776 34.6917C38.2217 36.1033 37.3439 37.3665 36.2126 38.3809V38.3116C36.189 38.3515 36.1678 38.3928 36.1492 38.4353C36.0815 39.2643 36.079 40.0972 36.1418 40.9266C36.1418 40.9612 36.1418 40.9959 36.1492 41.0305C38.2875 39.6094 39.9132 37.5448 40.7887 35.1384C42.0592 31.7128 41.9685 28.2068 41.286 24.6921ZM11.5743 9.66173C11.0498 10.2079 10.4603 10.6883 9.81895 11.0924C9.74332 11.1555 9.64818 11.1908 9.54948 11.1924C9.45079 11.194 9.35456 11.1617 9.27693 11.101C6.83038 9.50828 5.40945 7.26456 4.97558 4.39586C4.87613 3.73747 4.90596 3.07413 4.88359 2.41574C4.8724 2.11625 4.95445 2.03209 5.25654 2.03581C6.69612 2.05313 8.13571 2.04323 9.5753 2.04323C10.9689 2.04323 12.3625 2.05932 13.7548 2.0321C14.1402 2.02467 14.1862 2.15585 14.1961 2.49247C14.2807 5.23246 13.4676 7.64325 11.5743 9.66173ZM32.5055 11.0998C32.4282 11.1608 32.3321 11.1935 32.2334 11.1924C32.1347 11.1913 32.0394 11.1564 31.9635 11.0936C29.5281 9.50828 28.1084 7.28064 27.6708 4.43422C27.5639 3.7449 27.5962 3.05185 27.5751 2.35881C27.5676 2.08036 27.6708 2.03705 27.9182 2.03952C29.3578 2.04942 30.7986 2.03952 32.2382 2.03952H36.562C36.7236 2.03952 36.8839 1.98754 36.8964 2.26971C37.0132 5.09014 36.2325 7.59127 34.2621 9.6704C33.7346 10.2155 33.1432 10.6954 32.5005 11.0998H32.5055Z" fill="white"/>
<path id="Vector_3" d="M24.4646 25.2809C24.4573 25.2464 24.4489 25.212 24.4405 25.1775C24.414 25.1019 24.3911 25.025 24.3634 24.9494C23.8144 23.5106 22.8055 22.7044 21.4474 22.3809H20.3494C18.9046 22.7323 17.862 23.6128 17.3479 25.1788C17.3383 25.2159 17.3286 25.2517 17.3202 25.2889C17.035 26.3191 17.1301 27.4317 17.5851 28.3852C18.0823 29.446 18.8986 30.0865 19.8979 30.4763H19.9111C20.5604 30.6242 21.2303 30.6242 21.8796 30.4763H21.8917C24.0961 29.4911 25.0112 27.6426 24.4646 25.2809ZM22.6466 26.4651C22.648 26.7207 22.6034 26.9741 22.5154 27.2106C22.4274 27.4472 22.2977 27.6622 22.1338 27.8432C21.9699 28.0242 21.7751 28.1676 21.5605 28.2652C21.346 28.3628 21.1161 28.4126 20.884 28.4117C20.6519 28.4098 20.4225 28.3572 20.209 28.2569C19.9956 28.1566 19.8023 28.0107 19.6405 27.8275C19.4787 27.6443 19.3515 27.4276 19.2663 27.1898C19.1811 26.9521 19.1396 26.6981 19.1442 26.4425C19.1521 25.9342 19.3418 25.4498 19.672 25.0945C20.0023 24.7392 20.4464 24.5417 20.908 24.545C21.3686 24.5498 21.809 24.7538 22.1342 25.113C22.4594 25.4722 22.6434 25.9578 22.6466 26.4651Z" fill="white"/>
<path id="Vector_4" d="M19.3864 19.2063C19.366 19.4575 19.2468 19.6924 19.0522 19.8655C18.8576 20.0386 18.6014 20.1373 18.3336 20.1425C18.0655 20.1492 17.8045 20.0605 17.6029 19.8941C17.4013 19.7278 17.2739 19.496 17.2462 19.2451C17.1636 18.4704 17.1437 17.692 16.928 16.9323C16.5183 15.4658 15.7138 14.1231 14.5921 13.0338C14.1569 12.607 14.069 12.1903 14.2953 11.7635C14.644 11.1077 15.5118 10.9888 16.0922 11.542C17.7819 13.1276 18.8913 15.1776 19.26 17.3954C19.2919 17.5806 19.3252 17.7708 19.3452 17.951C19.3651 18.1313 19.3705 18.3553 19.3904 18.6857C19.4001 18.8591 19.3987 19.033 19.3864 19.2063Z" fill="white"/>
<path id="Vector_5" d="M27.2023 13.0202C25.9754 14.1949 25.1314 15.6745 24.7697 17.2847C24.6562 17.8209 24.5898 18.365 24.5712 18.9115C24.5299 19.7136 24.0823 20.1816 23.4082 20.1403C22.7341 20.099 22.3531 19.6172 22.3824 18.7988C22.3824 18.7213 22.3824 18.6437 22.3824 18.5849C22.557 15.8595 23.6334 13.5257 25.6437 11.5774C26.3098 10.9354 27.2836 11.1206 27.55 11.9227C27.6979 12.3582 27.5221 12.7086 27.2023 13.0202Z" fill="white"/>
<path id="Vector_6" d="M14.1733 19.4032C14.1677 19.8421 13.8728 20.1411 13.4443 20.1429C12.9832 20.1429 12.6771 19.8449 12.6827 19.4013C12.6892 18.9742 13.0038 18.6516 13.4145 18.6516C13.5164 18.6472 13.6182 18.6637 13.7132 18.7001C13.8082 18.7365 13.8943 18.7919 13.9658 18.8628C14.0374 18.9337 14.0928 19.0184 14.1286 19.1115C14.1643 19.2046 14.1796 19.304 14.1733 19.4032Z" fill="white"/>
<path id="Vector_7" d="M29.0938 19.4047C29.0826 19.8523 28.6085 20.1553 27.9399 20.1426C27.2714 20.1298 26.8462 19.8332 26.8574 19.3992C26.8686 18.9652 27.3343 18.6504 27.9539 18.6513C28.1066 18.6478 28.2588 18.665 28.4008 18.7017C28.5428 18.7385 28.6714 18.7941 28.7786 18.8649C28.8858 18.9357 28.9692 19.0203 29.0234 19.1132C29.0777 19.2062 29.1017 19.3054 29.0938 19.4047Z" fill="white"/>
</g>
</svg>
