<svg width="75" height="79" viewBox="0 0 75 79" fill="none" xmlns="http://www.w3.org/2000/svg">
<g id="Group 39">
<path id="Vector" d="M57.3817 68.3593C56.9935 68.2177 56.6168 68.0463 56.255 67.8466C51.3716 64.9086 44.9372 61.0241 38.4654 57.043C37.7681 56.584 36.9543 56.333 36.1194 56.3193C35.3163 56.3347 34.5318 56.5634 33.8464 56.9819C30.2514 59.0365 26.5814 61.1069 23.0337 63.1103C20.5555 64.5077 18.0779 65.9077 15.601 67.3103C15.2729 67.5254 14.8968 67.6561 14.5059 67.6908C14.3705 67.6888 14.2366 67.6614 14.1113 67.61C13.8982 67.5292 13.2491 67.2807 13.5529 65.9852L14.1606 63.3942C15.5418 57.4788 16.9842 51.3661 18.4383 45.3836C18.8547 43.6701 18.4166 42.2602 17.0986 41.0751C11.1891 35.7315 6.30765 31.2673 1.74187 27.0298C1.3593 26.7053 1.05966 26.2943 0.867777 25.8309C0.826944 25.7098 0.813725 25.581 0.829088 25.4541C0.84445 25.3272 0.888005 25.2053 0.956567 25.0974C1.07534 24.957 1.2226 24.8435 1.3886 24.7643C1.55459 24.6851 1.73554 24.642 1.91945 24.638C7.47968 24.1371 14.064 23.5594 20.7745 23.0605L21.0192 23.0428C25.3719 22.7253 26.1591 22.1653 28.0336 18.058C28.8228 16.3359 29.6121 14.6145 30.4013 12.8938C32.1317 9.11379 33.9214 5.20364 35.6557 1.34872C36.2654 -6.76973e-06 36.6561 0 37.0014 0C37.3842 0 37.8084 -8.65021e-06 38.3826 1.39604C39.6079 4.35379 40.8687 7.35492 42.0861 10.2555C43.489 13.5957 44.9392 17.0504 46.3421 20.4538C47.0406 22.1633 48.2955 23.094 50.1759 23.2912C56.5135 23.9636 62.9577 24.6912 69.1907 25.3951L70.6193 25.5568C70.9988 25.588 71.3746 25.654 71.742 25.754C71.9047 25.7933 72.053 25.8779 72.1697 25.9979C72.2863 26.118 72.3665 26.2686 72.401 26.4323C72.476 26.8109 72.3319 27.4183 71.7045 27.9487C66.6908 32.2709 61.3397 36.8751 55.8821 41.4872C54.3727 42.767 53.8656 44.2675 54.2799 46.2196C55.3474 51.1867 56.3754 56.2543 57.3718 61.1543C57.7112 62.8224 58.0505 64.4919 58.3899 66.1627C58.5576 66.9829 58.4945 67.6731 58.2222 68.0063C57.9965 68.2256 57.6963 68.3517 57.3817 68.3593ZM34.7619 8.83772L34.4955 9.38984C34.312 9.76646 34.1621 10.08 34.0161 10.3955C33.5096 11.5023 33.0032 12.6072 32.4968 13.7101C30.9873 17.0011 29.4246 20.4025 27.9152 23.7664C27.5739 24.5236 27.1852 24.7878 26.317 24.8509C22.9627 25.0974 19.5532 25.3735 16.2541 25.6397L15.1413 25.7304C14.0363 25.823 12.9393 25.9275 11.787 26.0399L10.0506 26.2056L4.87122 26.6906L8.63987 30.2754L9.16669 30.7802C9.42319 31.0267 9.63037 31.2258 9.83952 31.4171C10.8576 32.3478 11.8659 33.2765 12.8761 34.2033C15.3741 36.4985 17.9589 38.8746 20.5417 41.1757C21.3309 41.8737 21.4789 42.3963 21.1987 43.4098C20.8041 44.8256 20.4825 46.2591 20.1688 47.6472C20.0425 48.2013 19.9162 48.7574 19.786 49.3114C19.2335 51.6776 18.685 54.0241 18.1148 56.4633L16.2778 64.3506L20.9718 61.7024C22.3451 60.9281 23.7039 60.165 25.0483 59.4131C28.4677 57.4965 31.6977 55.6864 34.9592 53.7816C35.3301 53.5362 35.7585 53.3915 36.2023 53.3616C36.6577 53.3931 37.0955 53.55 37.467 53.8151C40.5648 55.7435 43.7356 57.6503 46.7999 59.4959C47.8903 60.1532 48.9801 60.8105 50.0693 61.4678C50.3396 61.6334 50.6139 61.7675 50.8803 61.8976C50.9927 61.9509 51.1151 62.01 51.2492 62.079L55.2053 64.0903L54.6726 59.6852C54.6568 59.5492 54.643 59.4309 54.6331 59.3244C54.6035 59.0582 54.5759 58.8078 54.5226 58.5357C54.2622 57.254 54.0076 55.9841 53.7551 54.7143C53.0507 51.1906 52.3226 47.5486 51.5195 43.9698C51.269 42.8517 51.4663 42.3036 52.3976 41.5286C55.0435 39.332 57.6875 37.0526 60.2427 34.8501C61.2266 34.0009 62.2132 33.1523 63.2023 32.3044C63.4648 32.0757 63.7015 31.8588 63.9738 31.6064L64.4355 31.1825L67.8036 28.1182L63.3582 27.1323C63.1806 27.0929 63.0366 27.0574 62.9143 27.0259C62.6443 26.954 62.3702 26.8987 62.0935 26.8602H62.0678L58.6563 26.4659C54.8423 26.0301 50.898 25.5805 47.0149 25.1743C45.8982 25.056 45.6693 24.6715 45.47 24.1411C45.2944 23.6777 45.1069 23.2459 44.9274 22.8298C44.8346 22.6149 44.7399 22.4 44.6511 22.185C43.4041 19.2273 42.163 16.2695 40.9022 13.2546L37.0566 4.11125L34.7619 8.83772Z" fill="#DFE42F"/>
<path id="Vector_2" d="M1.07612 52.8758C0.878688 52.8723 0.68632 52.8127 0.521434 52.7042C0.356547 52.5956 0.225932 52.4424 0.144809 52.2625C-0.162996 51.671 0.0244492 51.1248 0.663738 50.7817C3.11632 49.4606 6.35419 47.7391 9.64929 46.14C9.82178 46.0519 10.012 46.004 10.2057 46C10.8332 46 11.2613 46.5916 11.2811 47.4592C11.2653 47.5439 11.139 47.8299 10.6891 48.0724L10.3853 48.2321C7.53411 49.7327 4.58629 51.2825 1.66213 52.7279C1.48137 52.8231 1.28046 52.8738 1.07612 52.8758Z" fill="#DFE42F"/>
<path id="Vector_3" d="M73.3322 53.3872C73.2227 53.3857 73.115 53.3601 73.0165 53.3123C70.2206 52.0109 67.2017 50.4472 63.5239 48.3827C63.0385 48.1126 63.1391 47.4618 63.3266 47.1168C63.4078 46.9406 63.5335 46.7886 63.6912 46.6756C63.8489 46.5626 64.0333 46.4924 64.2263 46.472C64.3078 46.4717 64.3883 46.4906 64.4611 46.5272C68.0462 48.2348 71.1697 49.8537 73.9833 51.4765C74.1552 51.7251 74.3107 51.9847 74.449 52.2534C74.4727 52.3007 74.5003 52.348 74.5259 52.3954C74.2675 52.9928 73.7604 53.3872 73.3322 53.3872Z" fill="#DFE42F"/>
<path id="Vector_4" d="M18.9217 14.5048C18.6251 14.3936 18.3444 14.2438 18.0871 14.0591C15.5674 11.6929 13.1425 9.21831 11.1023 7.12226C10.5636 6.56818 10.5261 5.93915 11.0036 5.45803C11.0963 5.35561 11.2083 5.27255 11.3333 5.21366C11.4583 5.15478 11.5937 5.12122 11.7317 5.11493C12.1007 5.14677 12.4437 5.31815 12.6906 5.59409C14.936 7.7631 17.1143 9.9597 19.6991 12.5783C20.1233 13.0081 20.1825 13.3217 19.9477 13.8679C19.853 14.0848 19.7405 14.349 18.9217 14.5048Z" fill="#DFE42F"/>
<path id="Vector_5" d="M54.6272 14.5027C53.8162 14.3884 53.6919 14.1202 53.5814 13.8796C53.2618 13.1915 53.4887 12.9548 53.613 12.8267C56.3655 9.96555 58.8338 7.50274 61.1562 5.33373C61.2274 5.26191 61.3123 5.20504 61.4058 5.16644C61.4993 5.12784 61.5996 5.1083 61.7008 5.10896C62.0163 5.12206 62.314 5.25876 62.5295 5.48951C62.8827 5.84839 63.0188 6.47543 62.6262 6.86979C60.3393 9.26556 57.9084 11.685 55.1954 14.2641C55.0128 14.3589 54.8227 14.4387 54.6272 14.5027Z" fill="#DFE42F"/>
<path id="Vector_6" d="M35.8036 78.4117C35.0144 78.4117 34.7263 77.7334 34.7125 77.1004C34.6868 76.0001 34.6947 74.8663 34.7007 73.772C34.7007 73.2659 34.7007 72.7591 34.7007 72.2517C34.7007 71.8152 34.7007 71.3828 34.7007 70.9542C34.7007 69.783 34.6868 68.5742 34.7007 67.4049C34.7105 66.914 34.8625 66.0858 35.774 66.07H35.7997C36.731 66.07 36.879 66.908 36.8849 67.4089C36.9244 70.8832 36.9224 74.0697 36.8849 77.1438C36.8849 77.759 36.5889 78.4196 35.8036 78.4196V78.4117Z" fill="#DFE42F"/>
</g>
</svg>
