<svg width="42" height="47" viewBox="0 0 42 47" fill="none" xmlns="http://www.w3.org/2000/svg">
<path d="M35.8095 38.1286C35.8095 38.0806 35.8023 38.0325 35.7998 37.9845V37.9155C35.7768 37.9553 35.7562 37.9964 35.7381 38.0387C35.617 37.2356 35.6884 36.4214 35.5807 35.6122C35.0875 31.9047 33.4892 28.7884 30.7857 26.2634C28.7531 24.3576 26.2244 23.0869 23.5013 22.6027C22.8223 22.4718 22.1338 22.3984 21.4429 22.3834C21.4429 22.6199 21.6766 22.5657 21.8061 22.6039C22.3248 22.7395 22.8071 22.9913 23.2179 23.3408C23.6287 23.6902 23.9576 24.1287 24.1806 24.624C24.2508 24.7705 24.2835 24.9479 24.4227 25.0464C24.4385 25.0586 24.4556 25.0689 24.4736 25.0772C24.4663 25.0452 24.4579 25.0132 24.4494 24.9812C24.608 24.9097 24.7485 25.0009 24.8841 25.0514C29.828 26.9199 32.7655 30.4894 33.5646 35.8006C33.8601 37.7616 33.7354 39.7557 33.6445 41.7314C33.5695 43.3622 32.0825 44.7516 30.4007 44.9339C28.7539 45.1125 27.066 44.031 26.5889 42.3793C26.1179 40.7485 25.7341 39.0906 25.3418 37.4376C24.9168 35.6467 23.8779 34.4458 22.1452 33.8939C21.8824 33.8102 21.8788 33.6611 21.8788 33.4517C21.8788 32.2693 21.8788 31.0868 21.8788 29.9056H21.8909L21.8812 29.897C21.8691 29.8849 21.8561 29.8738 21.8424 29.8637C21.2019 29.8637 20.5602 29.8477 19.9184 29.8736L19.8954 29.8957L19.8857 29.9056H19.899C19.899 31.0733 19.8869 32.2459 19.899 33.4062C19.899 33.6895 19.8385 33.8188 19.5358 33.9186C17.9798 34.4433 16.9409 35.5075 16.5087 37.1309C16.0982 38.7001 15.7277 40.2804 15.3402 41.8558C14.8559 43.8364 13.4113 45.0103 11.5491 44.9413C9.71463 44.8748 8.13084 43.3277 8.09572 41.4604C8.06061 39.5599 7.94922 37.6507 8.19139 35.7563C8.59096 32.6216 9.97374 29.9881 12.2368 27.8375C13.5645 26.575 15.1484 25.6243 16.8768 25.0526C17.016 25.0058 17.1516 24.911 17.3115 24.9799C17.3018 25.0144 17.2921 25.0477 17.2836 25.0822C17.2994 25.0754 17.3148 25.0675 17.3296 25.0588C17.3842 25.0208 17.4263 24.9672 17.4507 24.9048C17.9702 23.6731 18.8432 22.8577 20.1497 22.5547C20.2356 22.535 20.3725 22.514 20.3349 22.381C17.3587 22.4968 14.644 23.428 12.2538 25.2226C8.77541 27.8297 6.75168 31.3225 6.18258 35.7009C6.08087 36.4793 6.16321 37.2627 6.03608 38.0412C6.02247 37.9839 5.99955 37.9294 5.96826 37.8798V37.9759C5.96826 38.0276 5.96826 38.0781 5.96826 38.1298C6.03728 38.9157 5.93074 39.7077 6.02639 40.4923L6.04455 40.6229C6.11841 40.8458 6.09056 41.0774 6.09541 41.3065C6.14747 43.4558 7.1222 45.0558 8.89124 46.194C9.49666 46.582 10.1905 46.7137 10.8371 46.9798H12.5577C12.8967 46.8751 13.2382 46.7778 13.5736 46.6632C14.4071 46.3799 15.1602 45.8941 15.7676 45.248C15.8887 45.1248 15.9735 45.009 16.1648 45.1852C16.6688 45.6495 17.2407 46.0314 17.86 46.3171C18.172 46.46 18.4932 46.581 18.8214 46.6793C19.0866 46.7581 19.3542 46.7938 19.6181 46.8862C20.0758 47.0463 20.6243 46.9983 21.1038 46.9736C21.6365 46.9514 22.1648 46.8658 22.6779 46.7187C23.4778 46.481 24.2338 46.1111 24.9156 45.6237C25.119 45.4783 25.316 45.3231 25.5065 45.1581C25.6275 45.0509 25.7184 44.9191 25.8988 45.1248C26.422 45.7179 27.0657 46.1882 27.7853 46.5031C27.9907 46.593 28.2009 46.6711 28.4149 46.7371C28.5251 46.7716 28.6365 46.8037 28.7491 46.8308C28.9118 46.8844 29.0776 46.928 29.2455 46.9613C29.729 47.0089 30.216 47.0044 30.6985 46.9478C31.1414 46.8942 31.5759 46.7841 31.9917 46.6201C32.3753 46.4732 32.7433 46.2871 33.09 46.0646C33.6401 45.7149 34.1224 45.2652 34.5127 44.7381C34.92 44.1774 35.2356 43.5535 35.4475 42.8905C35.4757 42.8042 35.5024 42.718 35.5274 42.6318C35.7187 41.9753 35.617 41.2941 35.7296 40.6327L35.7478 40.5095C35.8495 39.7138 35.7393 38.9181 35.8095 38.1286ZM24.5245 43.3277C23.5613 44.3321 22.2546 44.9202 20.8762 44.9696C19.4886 44.8982 18.2765 44.4769 17.2824 43.4916C17.1347 43.3462 17.0402 43.2144 17.0983 42.9742C17.5415 41.24 17.9665 39.5008 18.4049 37.7653C18.6676 36.7232 19.3033 36.0408 20.3422 35.8068C21.3109 35.5876 22.1258 35.8918 22.793 36.6234C23.0915 36.973 23.297 37.3945 23.3899 37.8478C23.8052 39.5254 24.2133 41.2067 24.6383 42.8831C24.6668 42.9596 24.6718 43.0431 24.6526 43.1225C24.6333 43.2019 24.5907 43.2735 24.5305 43.3277H24.5245Z" fill="#DFE42F"/>
<path d="M41.286 24.6921C40.3685 19.946 38.4267 15.638 35.5674 11.7322C35.3884 11.4847 35.4332 11.3684 35.6234 11.1741C36.9691 9.80068 37.9516 8.11634 38.4826 6.27202C38.9799 4.61243 38.9227 2.9182 38.919 1.22272C38.919 0.388595 38.5336 0.00371151 37.7032 0.00247394C34.045 0.00247394 30.3859 0.00247394 26.726 0.00247394C25.9167 0.00247394 25.5288 0.3886 25.5251 1.18931C25.5214 1.99002 25.5251 2.78701 25.5251 3.62609C22.4172 2.57167 19.3379 2.56177 16.2312 3.62609C16.2312 2.75978 16.2387 1.92443 16.2312 1.09525C16.2237 0.412113 15.8148 0.00371272 15.1248 0.00371272C11.4044 -0.00123757 7.68361 -0.00123757 3.9624 0.00371272C3.24882 0.00371272 2.84355 0.414584 2.84355 1.1299C2.84355 1.84522 2.82987 2.58034 2.84355 3.30556C2.91068 6.33679 3.99886 8.94724 6.1081 11.1369C6.35674 11.4018 6.33063 11.5441 6.13918 11.8065C3.93463 14.8081 2.26554 18.1652 1.20505 21.7306C0.119762 25.3653 -0.382477 29.0582 0.33483 32.8291C0.986249 36.2683 2.71302 39.043 5.64316 41.0317C5.64316 40.9971 5.64315 40.9624 5.65061 40.9278C5.71463 40.099 5.71463 39.2666 5.65061 38.4378C5.63664 38.3803 5.61312 38.3255 5.581 38.2757V38.3722C3.85176 36.824 2.84603 34.8624 2.39103 32.6187C1.7508 29.4988 2.09888 26.4197 2.89699 23.3765C3.86919 19.675 5.51226 16.1814 7.74534 13.0675C7.96911 12.752 8.12825 12.7124 8.42039 12.9438C9.16629 13.5539 9.89727 13.4673 10.7066 12.9586C13.2215 11.3745 14.9234 9.19393 15.7762 6.35989C15.806 6.22944 15.8687 6.10876 15.9586 6.00932C16.0485 5.90988 16.1625 5.83501 16.2896 5.79184C19.3652 4.55427 22.4334 4.55427 25.5102 5.79184C25.6374 5.83593 25.7511 5.91158 25.8407 6.01162C25.9304 6.11167 25.9929 6.23281 26.0224 6.36361C26.8926 9.22983 28.6069 11.4377 31.1741 13.0044C31.92 13.4648 32.6 13.5601 33.2962 12.997C33.679 12.6876 33.868 12.8015 34.134 13.1802C36.8889 17.102 38.7338 21.4014 39.4722 26.1338C39.926 29.0285 39.9036 31.9121 38.776 34.6917C38.2217 36.1033 37.3439 37.3665 36.2126 38.3809V38.3116C36.189 38.3515 36.1678 38.3928 36.1492 38.4353C36.0815 39.2643 36.079 40.0972 36.1418 40.9266C36.1418 40.9612 36.1418 40.9959 36.1492 41.0305C38.2875 39.6094 39.9132 37.5448 40.7887 35.1384C42.0592 31.7128 41.9685 28.2068 41.286 24.6921ZM11.5743 9.66173C11.0498 10.2079 10.4603 10.6883 9.81895 11.0924C9.74332 11.1555 9.64818 11.1908 9.54948 11.1924C9.45079 11.194 9.35456 11.1617 9.27693 11.101C6.83038 9.50828 5.40945 7.26456 4.97558 4.39586C4.87613 3.73747 4.90596 3.07413 4.88359 2.41574C4.8724 2.11625 4.95445 2.03209 5.25654 2.03581C6.69612 2.05313 8.13571 2.04323 9.5753 2.04323C10.9689 2.04323 12.3625 2.05932 13.7548 2.0321C14.1402 2.02467 14.1862 2.15585 14.1961 2.49247C14.2807 5.23246 13.4676 7.64325 11.5743 9.66173ZM32.5055 11.0998C32.4282 11.1608 32.3321 11.1935 32.2334 11.1924C32.1347 11.1913 32.0394 11.1564 31.9635 11.0936C29.5281 9.50828 28.1084 7.28064 27.6708 4.43422C27.5639 3.7449 27.5962 3.05185 27.5751 2.35881C27.5676 2.08036 27.6708 2.03705 27.9182 2.03952C29.3578 2.04942 30.7986 2.03952 32.2382 2.03952H36.562C36.7236 2.03952 36.8839 1.98754 36.8964 2.26971C37.0132 5.09014 36.2325 7.59127 34.2621 9.6704C33.7346 10.2155 33.1432 10.6954 32.5005 11.0998H32.5055Z" fill="#DFE42F"/>
<path d="M24.4646 25.281C24.4574 25.2466 24.449 25.2121 24.4405 25.1776C24.414 25.102 24.3912 25.0251 24.3635 24.9495C23.8145 23.5108 22.8055 22.7045 21.4475 22.381H20.3495C18.9047 22.7324 17.8621 23.6129 17.348 25.1789C17.3383 25.2161 17.3287 25.2519 17.3203 25.289C17.035 26.3192 17.1302 27.4318 17.5851 28.3853C18.0824 29.4461 18.8987 30.0866 19.898 30.4765H19.9112C20.5605 30.6243 21.2304 30.6243 21.8797 30.4765H21.8917C24.0962 29.4912 25.0112 27.6427 24.4646 25.281ZM22.6466 26.4652C22.648 26.7208 22.6035 26.9742 22.5155 27.2108C22.4274 27.4473 22.2978 27.6623 22.1339 27.8433C21.97 28.0243 21.7751 28.1677 21.5606 28.2653C21.3461 28.3629 21.1161 28.4127 20.884 28.4118C20.652 28.4099 20.4225 28.3573 20.2091 28.257C19.9956 28.1567 19.8024 28.0108 19.6406 27.8276C19.4787 27.6444 19.3515 27.4277 19.2663 27.1899C19.1811 26.9522 19.1397 26.6982 19.1443 26.4426C19.1522 25.9343 19.3419 25.4499 19.6721 25.0946C20.0023 24.7393 20.4465 24.5419 20.9081 24.5451C21.3686 24.5499 21.809 24.754 22.1342 25.1132C22.4595 25.4723 22.6435 25.9579 22.6466 26.4652Z" fill="#DFE42F"/>
<path d="M19.3865 19.2064C19.366 19.4575 19.2469 19.6925 19.0523 19.8656C18.8576 20.0386 18.6015 20.1373 18.3337 20.1425C18.0655 20.1492 17.8046 20.0605 17.603 19.8942C17.4014 19.7278 17.274 19.496 17.2462 19.2452C17.1637 18.4705 17.1437 17.692 16.9281 16.9324C16.5184 15.4658 15.7139 14.1232 14.5922 13.0339C14.1569 12.6071 14.0691 12.1903 14.2954 11.7636C14.6441 11.1078 15.5119 10.9889 16.0922 11.542C17.7819 13.1277 18.8913 15.1777 19.26 17.3954C19.292 17.5806 19.3253 17.7709 19.3452 17.9511C19.3652 18.1313 19.3705 18.3553 19.3905 18.6857C19.4001 18.8592 19.3988 19.0331 19.3865 19.2064Z" fill="#DFE42F"/>
<path d="M27.2025 13.0202C25.9755 14.1949 25.1315 15.6746 24.7699 17.2848C24.6563 17.821 24.5899 18.3651 24.5714 18.9115C24.5301 19.7136 24.0825 20.1816 23.4084 20.1403C22.7343 20.0991 22.3532 19.6173 22.3826 18.7989C22.3826 18.7213 22.3826 18.6437 22.3826 18.5849C22.5571 15.8595 23.6335 13.5258 25.6438 11.5774C26.3099 10.9355 27.2837 11.1207 27.5502 11.9228C27.698 12.3583 27.5222 12.7086 27.2025 13.0202Z" fill="#DFE42F"/>
<path d="M14.1733 19.403C14.1677 19.842 13.8727 20.141 13.4443 20.1428C12.9832 20.1428 12.677 19.8447 12.6826 19.4012C12.6892 18.9741 13.0037 18.6514 13.4144 18.6514C13.5164 18.6471 13.6182 18.6636 13.7131 18.7C13.8081 18.7364 13.8942 18.7918 13.9658 18.8627C14.0373 18.9336 14.0928 19.0183 14.1285 19.1114C14.1643 19.2045 14.1795 19.3038 14.1733 19.403Z" fill="#DFE42F"/>
<path d="M29.0938 19.4046C29.0826 19.8522 28.6084 20.1552 27.9399 20.1424C27.2713 20.1297 26.8461 19.8331 26.8573 19.3991C26.8685 18.9651 27.3343 18.6503 27.9539 18.6512C28.1066 18.6477 28.2587 18.6648 28.4007 18.7016C28.5427 18.7384 28.6714 18.7939 28.7785 18.8648C28.8857 18.9356 28.9691 19.0202 29.0234 19.1131C29.0776 19.206 29.1016 19.3053 29.0938 19.4046Z" fill="#DFE42F"/>
</svg>
