<svg width="75" height="78" viewBox="0 0 75 78" fill="none" xmlns="http://www.w3.org/2000/svg">
<g id="Group 40">
<path id="Vector" d="M19.5447 77.2057L19.4164 77.1027C18.9957 76.7727 18.6024 76.4573 18.2469 76.1294C17.0058 74.9774 15.7963 73.836 14.5152 72.6251L12.9755 71.1704L11.8038 70.0668L10.649 71.1872C10.4659 71.3638 10.2703 71.5593 10.0621 71.7674C9.61402 72.2152 9.10707 72.7218 8.58961 73.1822C7.63966 74.0409 6.40605 74.5192 5.12512 74.5255C4.29022 74.5278 3.46765 74.324 2.73045 73.9324C1.99324 73.5407 1.3642 72.9733 0.899137 72.2804C0.282416 71.3911 -0.031907 70.3273 0.00256013 69.2458C0.0370272 68.1644 0.418465 67.1227 1.09056 66.2745C1.3626 65.9396 1.65483 65.6216 1.96562 65.3222C12.6487 54.6391 23.336 43.9595 34.0275 33.2834C34.1551 33.1613 34.2892 33.0462 34.4293 32.9386C34.5218 32.865 34.6144 32.7914 34.7048 32.7158L35.7187 31.8749L35.136 30.6914C32.311 24.9294 31.9808 19.3398 34.1179 13.5778C35.847 8.92785 38.956 5.27641 43.3734 2.7202C46.4596 0.938367 49.9608 0.000164929 53.525 0C56.4534 0.00831141 59.3475 0.629951 62.0206 1.82481C64.6937 3.01966 67.0866 4.7612 69.0448 6.9371C72.2523 10.5013 74.139 15.0573 74.3898 19.8443C74.6289 24.6391 73.2185 29.3713 70.3932 33.2539C68.4627 35.9001 65.9352 38.0543 63.0158 39.5415C60.0963 41.0288 56.8671 41.8073 53.5902 41.8139C50.292 41.808 47.0414 41.0267 44.1012 39.5331L43.0179 38.9886L42.1576 39.8463L25.6155 56.3734L24.4544 57.5359L25.5882 58.7236C25.6281 58.7656 25.6723 58.8119 25.7207 58.8665C25.8406 58.9969 25.9815 59.1482 26.1267 59.287L28.1355 61.2924C29.1354 62.2916 30.1339 63.2916 31.1309 64.2922C31.7515 64.9228 31.762 65.1499 31.1436 65.7637C27.8768 69.0809 24.0799 72.9341 20.3651 76.6718C20.154 76.8597 19.9282 77.0305 19.6899 77.1826L19.671 77.1952L19.5447 77.2057ZM13.0365 69.0346L14.2986 70.2202L16.6987 72.4759L19.4732 75.0846L29.8415 65.1541L28.5794 63.8928L24.5701 59.8756L23.3795 58.6836L13.0365 69.0346ZM34.9131 34.3491C34.7974 34.4564 34.6501 34.593 34.5071 34.7359L6.56813 62.6546L5.54791 63.6741C4.54874 64.6706 3.51381 65.7027 2.50202 66.7307C2.00467 67.2041 1.65118 67.8082 1.48223 68.4735C1.31328 69.1388 1.33574 69.8383 1.54703 70.4914C1.73515 71.1501 2.10365 71.7431 2.61097 72.2037C3.11829 72.6642 3.74426 72.974 4.41832 73.0981C4.66392 73.1495 4.91416 73.1756 5.16508 73.1759C6.54289 73.1759 7.49367 72.4002 8.1689 71.7233C15.8594 64.028 23.5534 56.3348 31.2508 48.6438L39.829 40.0733C39.9847 39.9156 40.1256 39.758 40.2266 39.6529C40.2623 39.6129 40.2939 39.5751 40.3233 39.5457L41.434 38.3474L40.2665 37.2018C39.5345 36.4849 38.8277 35.7891 38.102 35.0744L36.1689 33.1825L34.9131 34.3491ZM53.5671 1.3664C42.8391 1.38111 34.1116 10.1954 34.1221 21.011C34.1355 26.1636 36.1903 31.1012 39.8371 34.7437C43.4839 38.3861 48.4259 40.4369 53.5818 40.4475C56.1441 40.454 58.6823 39.9519 61.0489 38.9703C63.4155 37.9888 65.5635 36.5474 67.3683 34.7296C69.1838 32.9245 70.6227 30.7772 71.6016 28.4122C72.5805 26.0472 73.0799 23.5115 73.0709 20.9521C73.0541 10.1513 64.3161 1.3664 53.5923 1.3664H53.5671Z" fill="#DFE42F"/>
<path id="Vector_2" d="M53.5944 30.4665C53.4617 30.4613 53.3321 30.4253 53.2157 30.3614C51.9901 29.7462 50.7616 29.1323 49.5304 28.5199C48.2991 27.9075 47.0692 27.2937 45.8408 26.6784C45.5084 26.5124 45.3528 26.3442 45.3528 25.8376C45.3528 22.5162 45.3528 19.1864 45.3528 16.0836C45.3528 15.6632 45.4727 15.4529 45.866 15.2679L46.8925 14.7571C48.9961 13.7117 51.0912 12.6648 53.1779 11.6165C53.3069 11.5439 53.4507 11.5015 53.5986 11.4925C53.7163 11.4976 53.8313 11.5292 53.9351 11.585L56.5771 12.903C58.1786 13.7004 59.7773 14.5 61.3732 15.3016C61.6803 15.455 61.8254 15.6106 61.8254 16.0794C61.8254 17.183 61.8254 18.2867 61.8254 19.3861V21.0363C61.8254 21.5282 61.8254 22.0187 61.8254 22.5078C61.8254 23.6198 61.8254 24.7276 61.8254 25.8376C61.8254 26.34 61.6719 26.506 61.3416 26.6784C60.0164 27.3427 58.6891 28.0056 57.3597 28.6671L53.9667 30.3614C53.8503 30.4253 53.7207 30.4613 53.588 30.4665H53.5944ZM53.6322 13.3003C53.1973 13.2983 52.7669 13.3893 52.3701 13.5673C51.6907 13.8826 51.0217 14.219 50.376 14.5448C49.6839 14.8938 49.0297 15.2238 48.3587 15.5307C47.553 15.9007 46.617 16.6785 46.7053 18.2887C46.7369 18.8731 46.7306 19.4723 46.7222 20.1071C46.7222 20.3888 46.7222 20.6684 46.7222 20.948C46.7222 21.2275 46.7222 21.4966 46.7222 21.7699C46.7222 22.5267 46.7095 23.3066 46.7495 24.0991C46.7811 24.5388 46.9197 24.9642 47.1532 25.3383C47.3867 25.7123 47.7081 26.0237 48.0894 26.2454C49.4883 26.9938 50.9544 27.7316 52.4521 28.4337C52.8124 28.5984 53.2045 28.6816 53.6007 28.6776C54.0178 28.6794 54.4304 28.5912 54.8102 28.419C55.6011 28.0469 56.3878 27.6517 57.1472 27.2712C57.7467 26.9685 58.3672 26.6574 58.9773 26.3652C59.4465 26.1622 59.8429 25.8215 60.1141 25.3883C60.3853 24.9551 60.5185 24.4498 60.496 23.9393C60.4708 22.1966 60.4687 20.311 60.496 18.0092C60.5241 17.5111 60.3997 17.0164 60.1392 16.5908C59.8788 16.1653 59.4947 15.8292 59.0383 15.6274C58.4072 15.3247 57.7509 14.9968 57.1241 14.6836C56.3689 14.3031 55.5864 13.9079 54.7955 13.54C54.4301 13.3754 54.0329 13.2936 53.6322 13.3003Z" fill="#DFE42F"/>
</g>
</svg>
