<svg width="23" height="21" viewBox="0 0 23 21" fill="none" xmlns="http://www.w3.org/2000/svg">
<path id="Vector" d="M21.9998 18.0536C21.9945 17.1328 21.3246 16.4979 20.3573 16.4935H19.6644V8.98749C19.938 8.98749 20.1918 8.99127 20.445 8.98749C20.855 8.98357 21.247 8.82657 21.5373 8.55007C21.8276 8.27358 21.9931 7.89953 21.9985 7.50796C22.0057 7.18799 21.9985 6.86676 21.9985 6.5468C22.0097 5.87096 21.7031 5.38031 21.0793 5.06286C20.3798 4.70699 19.6835 4.34545 18.9852 3.98644C16.4955 2.70573 14.0067 1.42503 11.5187 0.14432C11.158 -0.0446362 10.8349 -0.0528245 10.4802 0.148099C10.08 0.374847 9.66196 0.573252 9.25184 0.784253C6.45311 2.22368 3.65436 3.66374 0.855625 5.10443C0.297812 5.39227 0.0142949 5.85144 0.00374524 6.45862C-0.00218894 6.79433 -0.000210879 7.13067 0.00374524 7.46639C0.0129762 8.34 0.690124 8.98245 1.60992 8.99064C1.85322 8.99064 2.09588 8.99064 2.34907 8.99064V16.4935C2.08533 16.4935 1.83872 16.4935 1.59476 16.4935C0.691444 16.5029 0.0123175 17.1466 0.00440524 18.0051C-0.000869589 18.4895 -0.000210235 18.9745 0.00440524 19.4588C0.0116581 20.3362 0.686175 20.9913 1.60136 20.9913C7.8683 20.9942 14.1357 20.9942 20.4035 20.9913C21.318 20.9913 21.9905 20.3362 21.9985 19.4569C22.0064 18.9908 22.0024 18.5229 21.9998 18.0536ZM1.57629 7.47206C1.57629 7.15713 1.56246 6.86173 1.58487 6.56695C1.59147 6.48633 1.6884 6.3843 1.77148 6.34084C3.32272 5.53504 4.87615 4.73408 6.43179 3.93794C7.89291 3.18673 9.35316 2.43426 10.8125 1.68054C10.8694 1.6454 10.9357 1.6267 11.0034 1.6267C11.0711 1.6267 11.1374 1.6454 11.1943 1.68054C14.1834 3.2241 17.1764 4.7641 20.1734 6.30052C20.3593 6.39563 20.4576 6.48948 20.4371 6.70867C20.4121 6.95557 20.4312 7.20689 20.4312 7.47332L1.57629 7.47206ZM18.0601 9.00134V16.4746H15.7333V8.99882L18.0601 9.00134ZM14.1284 9.0089V16.4853H11.8009V9.00638L14.1284 9.0089ZM10.198 9.00323V16.4765H7.87116V9.00071L10.198 9.00323ZM6.27683 9.00323V16.4746H3.94997V8.99882L6.27683 9.00323ZM20.4167 19.4828H1.58619V18.0076H20.4167V19.4828Z" fill="white"/>
</svg>
