<svg width="48" height="48" viewBox="0 0 48 48" fill="none" xmlns="http://www.w3.org/2000/svg">
<g id="Group 178">
<circle id="Ellipse 9" opacity="0.07" cx="24" cy="24" r="24" fill="white"/>
<g id="Group" opacity="0.7">
<path id="Vector" d="M13.5 17.22C13.5 16.1154 14.3954 15.22 15.5 15.22H33C34.1046 15.22 35 16.1154 35 17.22V31.28C35 32.3845 34.1046 33.28 33 33.28H15.5C14.3954 33.28 13.5 32.3845 13.5 31.28V17.22Z" stroke="white" stroke-linecap="round" stroke-linejoin="round"/>
<path id="Vector_2" d="M24.2499 27.26C26.3872 27.26 28.1199 25.5274 28.1199 23.39C28.1199 21.2527 26.3872 19.52 24.2499 19.52C22.1125 19.52 20.3799 21.2527 20.3799 23.39C20.3799 25.5274 22.1125 27.26 24.2499 27.26Z" stroke="white" stroke-linecap="round" stroke-linejoin="round"/>
<path id="Vector_3" d="M18.6602 32.42C18.6602 30.7 19.9502 27.26 24.2502 27.26C28.5502 27.26 29.8402 30.7 29.8402 32.42" stroke="white" stroke-linecap="round" stroke-linejoin="round"/>
</g>
</g>
</svg>
