<svg width="62" height="62" viewBox="0 0 62 62" fill="none" xmlns="http://www.w3.org/2000/svg">
<g id="Group 23">
<rect id="Rectangle 6" opacity="0.07" width="62" height="62" rx="31" fill="white"/>
<path id="Vector" d="M25.1973 24.112C25.197 24.6719 24.9756 25.2087 24.5819 25.6044C24.1881 26.0001 23.6542 26.2223 23.0976 26.222C22.541 26.2217 22.0073 25.999 21.6139 25.6029C21.2206 25.2069 20.9997 24.6698 21 24.1099C21.0003 23.5501 21.2217 23.0132 21.6154 22.6175C22.0092 22.2219 22.5431 21.9997 23.0997 22C23.6563 22.0003 24.19 22.223 24.5833 22.619C24.9767 23.0151 25.1976 23.5522 25.1973 24.112ZM25.2602 27.7852H21.063V41H25.2602V27.7852ZM31.8919 27.7852H27.7156V41H31.8499V34.0654C31.8499 30.2023 36.8552 29.8434 36.8552 34.0654V41H41V32.6299C41 26.1175 33.5918 26.3603 31.8499 29.5584L31.8919 27.7852Z" fill="#DFE42F"/>
</g>
</svg>
