<svg width="48" height="48" viewBox="0 0 48 48" fill="none" xmlns="http://www.w3.org/2000/svg">
<g id="Group 178">
<circle id="Ellipse 9" opacity="0.07" cx="24" cy="24" r="24" fill="white"/>
<g id="Group 177">
<path id="Vector" opacity="0.7" d="M32.6972 16.4766C32.699 16.1498 32.6349 15.8258 32.5086 15.5237C32.3823 15.2216 32.1962 14.9473 31.9613 14.7169C31.7264 14.4865 31.4474 14.3047 31.1405 14.1819C30.8336 14.0591 30.505 13.9979 30.1739 14.0019C25.96 13.9994 21.7459 13.9994 17.5315 14.0019C16.1105 14.0019 15.0035 15.0887 15.0024 16.4883C14.9992 21.6261 14.9992 26.7637 15.0024 31.9012C14.9994 31.9936 15.0074 32.0861 15.026 32.1767C15.1715 32.7782 15.8313 33.0495 16.3918 32.7268C17.1434 32.294 17.8893 31.8524 18.6294 31.402C18.805 31.296 18.9365 31.3061 19.1051 31.4073C19.8937 31.8842 20.6947 32.3368 21.478 32.8195C21.8897 33.0728 22.2666 33.0744 22.6773 32.8238C23.4514 32.3516 24.2428 31.9065 25.0158 31.4327C25.2306 31.3024 25.3879 31.3034 25.5978 31.4327C26.3129 31.8741 27.036 32.3023 27.7619 32.7263C28.2756 33.0257 28.9123 32.7994 29.0927 32.2546C29.1349 32.109 29.1541 31.9577 29.1496 31.8063C29.1525 28.3876 29.1525 24.969 29.1496 21.5507V21.2634H29.3901C29.9667 21.2634 30.5428 21.2666 31.1188 21.2634C32.0384 21.2518 32.6929 20.61 32.6972 19.7092C32.7022 18.6299 32.7022 17.5524 32.6972 16.4766ZM27.8692 17.245C27.8649 21.8377 27.8649 26.4318 27.8692 31.0273V31.2859C27.7941 31.2483 27.7409 31.2255 27.6915 31.1964C27.1863 30.8975 26.6812 30.5997 26.1776 30.2981C25.5956 29.9489 25.0201 29.95 24.4366 30.3024C23.7118 30.7401 22.9785 31.164 22.2543 31.6023C22.127 31.6791 22.0395 31.6744 21.915 31.598C21.1918 31.1577 20.4601 30.7311 19.7353 30.2939C19.1448 29.9383 18.5655 29.9394 17.9777 30.3003C17.4328 30.6346 16.8803 30.9563 16.3075 31.2976C16.3011 31.2245 16.2925 31.1704 16.2925 31.1158C16.2925 26.2511 16.2925 21.386 16.2925 16.5206C16.2925 15.7888 16.8041 15.2694 17.5305 15.2689C21.0132 15.2668 24.496 15.2668 27.9787 15.2689C28.0179 15.2689 28.0571 15.2721 28.128 15.2758C27.771 15.9069 27.8703 16.5826 27.8692 17.245ZM31.1805 19.9847C30.5132 19.9937 29.8454 19.9884 29.1534 19.9884V17.3669C29.1534 17.0367 29.1534 16.7066 29.1534 16.3765C29.1534 15.8561 29.4218 15.4676 29.8685 15.3208C30.3151 15.1741 30.8617 15.3457 31.1569 15.7337C31.3228 15.9437 31.4119 16.2029 31.4098 16.4692C31.4098 17.5386 31.4098 18.6081 31.4098 19.6779C31.4135 19.8438 31.3658 19.9826 31.1805 19.9847Z" fill="white"/>
<path id="Vector_2" opacity="0.7" d="M24.8238 19.4235C24.8238 19.8008 24.5371 20.0626 24.1108 20.0626C22.4365 20.0626 20.7623 20.0626 19.088 20.0626C18.7149 20.0626 18.4481 19.8363 18.4008 19.4972C18.3835 19.3514 18.4186 19.2042 18.5 19.0814C18.5815 18.9585 18.7041 18.8679 18.8464 18.8252C18.9369 18.8025 19.0301 18.7926 19.1234 18.7956C19.9539 18.7956 20.7845 18.7956 21.615 18.7956C22.4455 18.7956 23.276 18.7956 24.106 18.7956C24.5403 18.795 24.8227 19.0441 24.8238 19.4235Z" fill="white"/>
<path id="Vector_3" opacity="0.7" d="M24.8172 22.9221C24.7964 23.0605 24.7286 23.1878 24.6249 23.2832C24.5212 23.3786 24.3878 23.4364 24.2465 23.4473C24.1204 23.4573 23.9926 23.4536 23.8654 23.4536H21.6154C20.765 23.4536 19.9141 23.4584 19.0637 23.4536C18.6053 23.4499 18.3052 23.07 18.4233 22.6555C18.4507 22.5424 18.5111 22.4397 18.5969 22.3601C18.6828 22.2804 18.7904 22.2273 18.9064 22.2072C18.9785 22.1931 19.0519 22.1864 19.1255 22.1871C20.7793 22.1871 22.4336 22.1871 24.0882 22.1871C24.2016 22.1856 24.3143 22.2036 24.4215 22.2401C24.7039 22.3387 24.8585 22.6206 24.8172 22.9221Z" fill="white"/>
<path id="Vector_4" opacity="0.7" d="M24.8235 26.2971C24.8235 26.6612 24.5417 26.9288 24.1455 26.9293C22.4576 26.9322 20.7697 26.9322 19.0819 26.9293C18.7114 26.9293 18.4441 26.6999 18.4001 26.3597C18.384 26.2103 18.4225 26.0602 18.5088 25.9365C18.595 25.8127 18.7233 25.7236 18.8704 25.6851C18.9551 25.6666 19.0419 25.6588 19.1286 25.6617C19.9593 25.6617 20.7898 25.6617 21.6201 25.6617C22.4569 25.6617 23.294 25.6617 24.1315 25.6617C24.5417 25.6623 24.8246 25.9251 24.8235 26.2971Z" fill="white"/>
</g>
</g>
</svg>
