<svg width="61" height="87" viewBox="0 0 61 87" fill="none" xmlns="http://www.w3.org/2000/svg">
<g id="Group 41">
<path id="Vector" d="M26.9515 86.9332C26.626 86.8093 26.3049 86.6964 25.9926 86.5858C25.1776 86.298 24.4091 86.028 23.8311 85.6407C22.1612 84.5341 21.3374 82.8476 21.313 80.5105C21.313 79.6252 21.313 78.7178 21.313 77.8546C21.313 76.4913 21.313 75.0837 21.282 73.6849C21.2579 73.1604 21.1196 72.6475 20.8767 72.1819C20.6338 71.7163 20.2922 71.3093 19.8757 70.9892C18.8336 70.2878 17.746 69.6564 16.6202 69.0991C14.9672 68.2582 13.5072 67.0833 12.3326 65.6487C10.5121 63.4355 8.64296 61.2223 6.83358 59.0622C5.13937 57.0459 3.38535 54.9589 1.68228 52.8962C-0.089449 50.7449 -0.399499 48.5317 0.743265 46.1237C1.82402 43.8463 3.62231 42.7043 6.24004 42.6313H6.41501C8.045 42.6313 9.48233 43.2687 10.8067 44.5745C11.2496 45.0171 11.6925 45.473 12.2086 45.9887L12.9748 46.7655L16.0067 49.8353V44.3974C16.0067 42.3627 16.0067 40.3295 16.0067 38.2978C16.0067 33.1166 16.0067 27.7584 16.0067 22.491C16.0067 19.709 17.114 17.83 19.4859 16.5751C20.2976 16.1434 21.2041 15.9205 22.1236 15.9266C24.8078 15.9266 27.895 17.8941 28.2028 21.0745C28.3546 22.9805 28.4086 24.893 28.3645 26.8045C28.3645 27.6898 28.3645 28.5906 28.3645 29.4892C28.3645 29.7304 28.3645 29.965 28.3645 30.2195V32.5324L30.309 32.342C30.371 32.342 30.4264 32.342 30.4795 32.342C30.722 32.3322 30.9629 32.2996 31.1993 32.2446C31.7445 32.1018 32.3055 32.0275 32.8691 32.0233C34.1767 32.0305 35.4443 32.4746 36.4702 33.2849C36.9304 33.6559 37.5001 33.8652 38.0913 33.8802C38.6525 33.8746 39.1967 33.6866 39.6416 33.3446C40.7729 32.508 42.1367 32.0439 43.5438 32.0167C46.0508 32.0167 48.2389 33.6368 49.2576 36.2461C49.3169 36.3982 49.3864 36.5461 49.4658 36.6888L49.9929 37.7423L51.1844 37.6471C51.6273 37.6117 52.0569 37.5586 52.4689 37.5054C53.0124 37.4233 53.5604 37.3745 54.1099 37.3594C54.2716 37.3594 54.42 37.3594 54.5529 37.3815C57.9324 37.7423 60.1404 40.148 60.1759 43.5121C60.2312 48.9168 60.2157 54.4211 60.2002 59.7439C60.2002 61.4215 60.1965 63.1006 60.1892 64.7811C60.1892 66.1755 59.6421 67.499 58.3665 69.2076C57.8815 69.856 57.4806 70.3916 57.1263 70.8431C54.9626 73.6628 54.8385 74.0213 54.8917 77.2238C54.9028 77.9166 54.9183 78.7731 54.905 79.8797C54.8828 82.0553 54.4466 83.4872 53.4433 84.6691C52.5039 85.8184 51.1739 86.5818 49.7072 86.8137C49.5568 86.8405 49.4087 86.8789 49.2643 86.9288L26.9515 86.9332ZM6.20241 44.3487C5.10285 44.3535 4.0476 44.7824 3.2569 45.5461C1.4586 47.2215 1.3966 49.8176 3.10188 51.8582L5.31654 54.514C8.17567 57.9356 11.13 61.4724 14.0733 64.9272C14.816 65.7612 15.6824 66.4763 16.6423 67.0475C17.3466 67.4901 18.0663 67.8818 18.7617 68.2625C19.4571 68.6432 20.0905 68.9818 20.6973 69.3691C22.3783 70.4315 23.1335 71.8457 23.0759 73.8155C23.025 75.5861 23.0405 77.3699 23.056 79.0962C23.056 79.5654 23.056 80.0346 23.056 80.5038C23.0693 83.3345 24.9096 85.1649 27.7422 85.1693C31.1912 85.1693 34.6401 85.1693 38.0891 85.1693H48.4338C51.2597 85.1693 53.0978 83.3323 53.1155 80.4972C53.1288 78.8483 53.1288 77.1774 53.1155 75.5241C53.0807 74.2551 53.449 73.0077 54.1675 71.9608C54.5551 71.3942 54.9626 70.8542 55.3944 70.2655C56.0101 69.4355 56.6479 68.579 57.2259 67.6605C57.7464 66.8306 58.3709 65.5646 58.3842 64.23C58.444 58.4403 58.4352 52.5575 58.4241 46.8674V43.7135C58.4241 41.0842 56.6169 39.1233 54.1254 39.0525H53.9948C51.6251 39.0525 49.8135 40.8076 49.5854 43.3218C49.5632 43.5608 49.437 44.3399 48.6995 44.3399H48.6552C47.9022 44.3089 47.8137 43.5741 47.8114 43.2576C47.8114 42.483 47.8114 41.7083 47.8114 40.9293C47.8114 40.0706 47.8114 39.1831 47.8114 38.3044C47.7826 35.7083 45.8847 33.7496 43.3954 33.7496H43.3666C40.8862 33.7629 38.9971 35.7415 38.9727 38.3376C38.9727 39.1853 38.9727 40.0396 38.9727 40.8651C38.9727 41.6442 38.9727 42.4144 38.9727 43.2C38.9727 43.5431 38.8797 44.3399 38.0979 44.3399C37.3162 44.3399 37.2121 43.6095 37.2121 43.1757C37.2121 42.4431 37.2121 41.7128 37.2121 40.9802C37.2121 40.1082 37.2121 39.2096 37.2121 38.3088C37.1811 35.7083 35.2809 33.7496 32.796 33.7496H32.7672C30.2846 33.7629 28.3955 35.7415 28.3711 38.3398C28.3711 39.265 28.3711 40.2011 28.3711 41.1064C28.3711 41.7762 28.3711 42.4468 28.3711 43.1182C28.3711 43.6737 28.2139 44.3399 27.4853 44.3399C26.9028 44.3399 26.5994 43.9194 26.5994 43.0982C26.5994 40.6932 26.5994 38.2889 26.5994 35.8854V30.131C26.5994 27.5371 26.5994 24.9425 26.5994 22.3471C26.5994 20.3309 25.6449 18.806 23.902 18.0358C23.3444 17.787 22.7408 17.6581 22.1302 17.6573C19.6941 17.6573 17.7629 19.6824 17.7541 22.2652C17.7408 25.7776 17.7541 29.3475 17.7541 32.7935C17.7541 34.145 17.7541 35.4973 17.7541 36.8503V43.1226C17.7541 43.9725 17.7541 44.8201 17.7541 45.67C17.7541 47.611 17.7541 49.6184 17.7541 51.5904C17.7541 52.6682 17.1273 52.7103 16.9258 52.7235H16.8593C16.7243 52.7235 16.4762 52.7235 15.9624 52.2034C13.4266 49.656 11.4755 47.7084 9.63956 45.8847C8.64518 44.8954 7.42269 44.3487 6.20241 44.3487Z" fill="#DFE42F"/>
<path id="Vector_2" d="M13.3558 8.95719C13.3193 8.95903 13.2828 8.95307 13.2489 8.93971C13.2149 8.92636 13.1841 8.90591 13.1587 8.87974C11.6554 7.51978 10.2222 6.0845 8.86444 4.57944C8.74263 4.44444 8.78914 3.9863 9.08591 3.69416C9.26656 3.51249 9.50967 3.40645 9.7658 3.39759C9.85641 3.39021 9.9465 3.41706 10.0183 3.47283C11.5021 4.80077 12.9305 6.29247 14.2549 7.70451C14.2771 7.77312 14.3036 7.87935 14.3214 7.95017V7.97454C14.2549 8.59867 14.0512 8.70489 13.8784 8.79342C13.7195 8.88836 13.5404 8.94448 13.3558 8.95719Z" fill="#DFE42F"/>
<path id="Vector_3" d="M30.9645 8.91511C30.3422 8.8288 30.2425 8.62518 30.1539 8.44148C29.9081 7.93244 30.0653 7.76201 30.1406 7.68012C31.6112 6.08218 32.9599 4.73211 34.2666 3.55468C34.3712 3.45979 34.5085 3.40903 34.6497 3.41303C34.7745 3.41515 34.8976 3.4423 35.0118 3.49287C35.1259 3.54343 35.2287 3.61639 35.3141 3.70741C35.571 3.97963 35.6817 4.45547 35.4093 4.75204C34.1957 6.07997 32.8846 7.37691 31.4052 8.73583C31.2634 8.80731 31.116 8.86727 30.9645 8.91511Z" fill="#DFE42F"/>
<path id="Vector_4" d="M22.179 7.05376C22.0639 7.0532 21.9502 7.02975 21.8443 6.98476C21.7384 6.93976 21.6426 6.87414 21.5624 6.79172C21.4822 6.7093 21.4192 6.61173 21.3772 6.50472C21.3351 6.39771 21.3148 6.28341 21.3175 6.16847C21.2953 5.58639 21.302 4.99325 21.3175 4.36691C21.3175 4.07919 21.3175 3.78925 21.3175 3.50153C21.3175 3.21381 21.3175 2.98364 21.3175 2.72469C21.3175 2.09614 21.3175 1.50301 21.3175 0.914294C21.3136 0.797114 21.3331 0.680338 21.3748 0.570748C21.4165 0.461158 21.4796 0.360924 21.5603 0.275887C21.6411 0.19085 21.738 0.12269 21.8453 0.0753679C21.9526 0.0280459 22.0683 0.00251631 22.1856 0.000234111C22.2989 -0.0024264 22.4115 0.0176126 22.5169 0.0591578C22.6222 0.100703 22.7182 0.162901 22.7991 0.242116C22.88 0.32133 22.9443 0.415941 22.988 0.520362C23.0317 0.624783 23.0541 0.736903 23.0538 0.850102C23.0981 2.78003 23.0981 4.54395 23.0538 6.23707C23.0446 6.458 22.9493 6.66661 22.7884 6.81836C22.6274 6.97011 22.4135 7.05298 22.1923 7.04933L22.179 7.05376Z" fill="#DFE42F"/>
<path id="Vector_5" d="M4.60565 17.6684C4.25352 17.6684 3.96559 17.6684 3.69762 17.6551C3.12624 17.6374 2.75198 17.2966 2.74755 16.7897C2.7432 16.6723 2.76312 16.5552 2.8061 16.4459C2.84909 16.3365 2.9142 16.2372 2.99735 16.1541C3.08049 16.071 3.17987 16.0059 3.28932 15.963C3.39876 15.92 3.51591 15.9001 3.63341 15.9044C4.46169 15.8845 5.32763 15.8757 6.20906 15.8757C7.05285 15.8757 7.94757 15.8757 8.86665 15.9022C9.4181 15.9022 9.79015 16.2586 9.79458 16.7654C9.79901 17.2722 9.41146 17.6285 8.80685 17.6507C8.4813 17.6507 8.16239 17.6507 7.84127 17.6507H7.03069H6.19798H5.38297L4.60565 17.6684Z" fill="#DFE42F"/>
<path id="Vector_6" d="M38.0602 17.6772C37.1921 17.6772 36.3262 17.6772 35.4846 17.6507C35.3669 17.6567 35.2493 17.6386 35.1389 17.5975C35.0285 17.5565 34.9276 17.4932 34.8426 17.4118C34.7575 17.3303 34.6901 17.2323 34.6443 17.1238C34.5986 17.0153 34.5755 16.8986 34.5766 16.7809C34.5766 16.2785 34.9531 15.9288 35.5134 15.9111C35.7946 15.9 36.0958 15.8956 36.4613 15.8956C36.7447 15.8956 37.0282 15.8956 37.3117 15.8956H38.1976H39.0236C39.2894 15.8956 39.5529 15.8956 39.8187 15.8956C40.1575 15.8956 40.4366 15.8956 40.7045 15.9111C41.2649 15.931 41.6413 16.2807 41.6413 16.7831C41.6418 16.9011 41.6182 17.018 41.5718 17.1266C41.5254 17.2351 41.4572 17.3331 41.3716 17.4143C41.2859 17.4956 41.1845 17.5585 41.0736 17.5991C40.9627 17.6398 40.8446 17.6573 40.7267 17.6507C39.8209 17.6684 38.9284 17.6772 38.0602 17.6772Z" fill="#DFE42F"/>
</g>
</svg>
