<svg width="67" height="79" viewBox="0 0 67 79" fill="none" xmlns="http://www.w3.org/2000/svg">
<g id="Group 38">
<path id="Vector" d="M5.77693 79C5.70112 78.9724 5.62371 78.9494 5.5451 78.9312C2.21136 78.1548 0.51765 76.0384 0.515503 72.638V58.6752C0.515503 44.6837 0.515503 30.6922 0.515503 16.7008C0.515503 12.782 2.94336 10.343 6.85025 10.3344H10.8473V8.61383C10.8473 8.30627 10.8473 8.01376 10.8473 7.72771C10.8473 7.19647 10.8473 6.69749 10.8473 6.19851C10.8924 2.43466 13.3503 0.00215077 17.1112 0H60.1751C64.0047 0 66.4819 2.47339 66.4841 6.29531C66.4841 28.9709 66.4841 46.2717 66.4841 62.3917C66.491 62.9805 66.429 63.5681 66.2994 64.1425C65.6426 66.8697 63.4229 68.601 60.5035 68.6591C60.1708 68.6591 59.8445 68.6591 59.5139 68.6591H58.7196H56.1544V70.3797C56.1544 70.7023 56.1544 71.0099 56.1544 71.3067C56.1544 71.8616 56.1544 72.3821 56.1544 72.8983C56.1308 75.2017 55.2635 76.8664 53.5012 77.9892C52.9515 78.2961 52.3708 78.5434 51.7688 78.7268C51.5262 78.8129 51.2772 78.8989 51.0239 78.9935L5.77693 79ZM6.90177 11.7239C3.72688 11.7239 1.9044 13.5585 1.9044 16.7588C1.9044 26.0688 1.9044 35.3795 1.9044 44.6909C1.9044 54.0023 1.9044 63.313 1.9044 72.623C1.9044 75.7932 3.70972 77.6106 6.85885 77.6106H49.8433C52.9216 77.6106 54.7591 75.7631 54.7591 72.6638C54.7591 53.9894 54.7591 35.3135 54.7591 16.6362C54.7591 13.5585 52.9087 11.7196 49.8068 11.7196H6.91037L6.90177 11.7239ZM49.7746 10.3301C51.3781 10.3301 52.5974 10.6678 53.6106 11.4055C55.3537 12.6508 56.1651 14.3672 56.163 16.804C56.1501 28.6999 56.163 40.7937 56.163 52.4874V67.2848H60.0548C63.3134 67.2848 65.108 65.4824 65.108 62.2197V6.43081C65.108 3.17885 63.3113 1.38939 60.0484 1.38939H16.9009C16.6862 1.38939 16.5252 1.38938 16.362 1.40874C14.239 1.58295 12.5475 3.18529 12.3392 5.21562C12.2731 6.00962 12.258 6.80704 12.2941 7.60297C12.2941 7.93204 12.3092 8.26971 12.3092 8.61598V10.3366H32.6357C38.3458 10.3366 44.0566 10.3366 49.7681 10.3366L49.7746 10.3301Z" fill="#DFE42F"/>
<path id="Vector_2" d="M25.954 69H12.0932C11.6432 69 11.2836 68.8611 11.1307 68.6327C11.0246 68.4224 10.9805 68.1608 11.008 67.9043C11.0023 67.7937 11.0127 67.6826 11.0384 67.578C11.0641 67.4734 11.1046 67.3776 11.1574 67.2964C11.2101 67.2153 11.274 67.1506 11.345 67.1065C11.416 67.0624 11.4926 67.0398 11.57 67.0401C11.921 67.0123 12.2956 67 12.793 67H13.439H36.6753C39.4746 67 42.2738 67 45.0731 67C45.9818 67 45.9926 67.5185 45.999 67.8951C46.0141 68.5123 45.8548 68.821 45.4349 68.929C45.2519 68.9711 45.0667 68.9897 44.8815 68.9846L25.954 69Z" fill="#DFE42F"/>
<path id="Vector_3" d="M45.0532 33.6444C43.0223 31.6659 40.9999 29.6767 38.9647 27.7046C38.7835 27.5305 38.5655 27.3994 38.3267 27.3213C38.0022 27.2384 37.6726 27.1772 37.34 27.1381L29.8756 25.8347C27.3747 25.396 24.8745 24.9573 22.375 24.5185C19.8968 24.0926 17.4207 23.6581 14.9467 23.2152L12.6074 22.8041C12.0651 22.8041 11.7972 23.1811 11.9694 23.639C12.0226 23.7902 12.097 23.935 12.1545 24.0862C15.3132 32.4276 18.4719 40.769 21.6307 49.1104C22.7649 52.1076 23.8991 55.1056 25.0333 58.1042C25.1332 58.3704 25.2459 58.5813 25.5373 58.6324C25.6663 58.651 25.798 58.6313 25.916 58.5756C26.0339 58.52 26.1329 58.4308 26.2008 58.3193C29.5325 54.138 32.8642 49.9594 36.1959 45.7838C39.1731 42.0525 42.1504 38.322 45.1276 34.5921C45.3977 34.245 45.3616 33.9447 45.0532 33.6444ZM14.8404 24.4057L37.0571 28.3073C34.1947 30.8246 31.4025 33.2781 28.5911 35.7613L14.8106 24.5185C14.8191 24.4738 14.8297 24.4397 14.8404 24.4057ZM25.7776 52.4924C25.6457 53.4507 25.5146 54.4091 25.3842 55.3675C25.3842 55.3973 25.3459 55.425 25.2863 55.5081C21.4754 45.4515 17.6773 35.4255 13.8919 25.4301L13.96 25.3704L16.9011 27.7685C20.4936 30.699 24.0869 33.6281 27.6809 36.5557C27.7762 36.6201 27.8497 36.7121 27.8915 36.8194C27.9333 36.9267 27.9414 37.0443 27.9148 37.1563C27.6617 38.875 27.4321 40.5958 27.1918 42.3166C26.9593 43.9991 26.726 45.683 26.4921 47.3683L25.7776 52.4924ZM26.5921 55.868L26.5304 55.8339C27.3938 49.5917 28.2593 43.3495 29.1312 37.0626L43.2902 34.9627L26.5921 55.868ZM30.7007 35.6144C30.6858 35.5909 30.673 35.5675 30.6603 35.5441L38.3799 28.7524L43.4455 33.7211L30.7007 35.6144Z" fill="#DFE42F"/>
</g>
</svg>
