<svg width="21" height="19" viewBox="0 0 21 19" fill="none" xmlns="http://www.w3.org/2000/svg">
<g id="Group 111">
<path id="Vector" d="M20.4473 4.36386C20.1381 3.53502 19.5676 2.9612 18.7451 2.65963C18.6307 2.61819 18.5773 2.56718 18.5616 2.43648C18.3988 1.0861 17.2169 0.0066945 15.8754 0.00478179C11.4936 -0.00159393 7.11234 -0.00159393 2.73145 0.00478179C1.2611 0.00478179 0.0113104 1.25825 0.00754025 2.74634C-0.00251342 7.15069 -0.00251342 11.5552 0.00754025 15.96C0.00754025 17.4519 1.25796 18.7073 2.72768 18.7092C7.78048 18.7156 12.8327 18.7156 17.8842 18.7092C19.2038 18.7092 20.3587 17.6929 20.5761 16.3732C20.5867 16.3208 20.6002 16.2691 20.6163 16.2182V4.9874C20.561 4.77892 20.522 4.56469 20.4473 4.36386ZM2.73208 1.31882C2.78549 1.31563 2.8389 1.31882 2.89294 1.31882C7.16574 1.31882 11.4385 1.31882 15.7114 1.31882C16.4415 1.31882 17.0083 1.70774 17.2194 2.34786C17.232 2.38611 17.237 2.42564 17.2533 2.4996H3.6677C2.86529 2.4996 2.05157 2.42819 1.31388 2.94208C1.27053 2.05776 1.89826 1.36727 2.73208 1.31882ZM19.3068 15.9721C19.2666 16.829 18.6194 17.3997 17.7485 17.4003C14.9037 17.4003 12.0589 17.4003 9.21417 17.4003C7.10123 17.4003 4.98787 17.4003 2.87409 17.4003C2.12007 17.4003 1.53633 16.9712 1.3585 16.2762C1.31977 16.118 1.30098 15.9554 1.30258 15.7923C1.29923 12.3333 1.29923 8.87489 1.30258 5.41713C1.30258 4.45567 1.93093 3.81746 2.88226 3.81682C7.83369 3.81682 12.7853 3.81682 17.7372 3.81682C18.6879 3.81682 19.3168 4.4544 19.3206 5.41075C19.3206 6.12611 19.3206 6.84083 19.3206 7.55554C19.3151 7.58023 19.3073 7.60435 19.2974 7.62759H19.0555C17.7812 7.62759 16.5064 7.62759 15.2313 7.62759C13.6855 7.62759 12.4848 8.66364 12.2265 10.2091C11.9519 11.8515 13.2168 13.513 14.8499 13.6475C15.1238 13.6699 15.3997 13.6718 15.6743 13.6724C16.8015 13.6724 17.9288 13.6724 19.0555 13.6724H19.2829C19.3024 13.7017 19.3162 13.7126 19.3169 13.7241C19.3137 14.4751 19.342 15.2249 19.3068 15.9721ZM19.3068 8.96203V12.3322C19.2528 12.338 19.2081 12.3475 19.1629 12.3475C17.8289 12.3475 16.4943 12.3539 15.1597 12.3475C14.9327 12.3478 14.7081 12.3011 14.4996 12.2102C14.291 12.1194 14.1029 11.9864 13.9468 11.8193C13.7906 11.6522 13.6697 11.4546 13.5914 11.2384C13.5131 11.0223 13.4791 10.7923 13.4914 10.5623C13.5272 9.70799 14.2354 8.9684 15.0717 8.95629C16.4541 8.93907 17.8365 8.94991 19.2188 8.94991C19.249 8.95184 19.279 8.95588 19.3087 8.96203H19.3068Z" fill="white"/>
<path id="Vector_2" d="M16.086 10.7019C16.085 10.8373 16.0445 10.9693 15.9696 11.0813C15.8947 11.1933 15.7888 11.2803 15.6652 11.3312C15.5416 11.3822 15.4059 11.3948 15.2753 11.3676C15.1446 11.3403 15.0249 11.2744 14.9311 11.1781C14.8374 11.0818 14.7738 10.9595 14.7486 10.8266C14.7233 10.6937 14.7374 10.5562 14.7891 10.4314C14.8408 10.3066 14.9278 10.2002 15.0391 10.1256C15.1503 10.051 15.2809 10.0115 15.4143 10.0121C15.5932 10.0141 15.7642 10.0877 15.89 10.2169C16.0157 10.346 16.0862 10.5204 16.086 10.7019Z" fill="white"/>
</g>
</svg>
